<?xml version="1.0" standalone="no"?>
<!DOCTYPE svg PUBLIC "-//W3C//DTD SVG 20010904//EN"
 "http://www.w3.org/TR/2001/REC-SVG-20010904/DTD/svg10.dtd">
<svg version="1.0" xmlns="http://www.w3.org/2000/svg"
 width="604.000000pt" height="604.000000pt" viewBox="0 0 604.000000 604.000000"
 preserveAspectRatio="xMidYMid meet">
<metadata>
Created by potrace 1.11, written by Peter Selinger 2001-2013
</metadata>
<g transform="translate(0.000000,604.000000) scale(0.100000,-0.100000)"
fill="#000000" stroke="none">
<path d="M3290 5422 c-24 -8 -39 -35 -40 -68 0 -29 44 -288 55 -324 4 -12 -10
-31 -49 -64 l-55 -47 -28 18 c-15 10 -30 20 -33 23 -26 28 -198 133 -226 137
-60 10 -72 -45 -31 -133 13 -27 47 -98 75 -157 29 -60 52 -113 52 -119 0 -6
-12 -36 -26 -66 -26 -56 -61 -149 -70 -187 -25 -108 -37 -227 -35 -353 l1 -74
-37 44 c-125 145 -301 250 -508 304 -84 22 -308 27 -395 8 -19 -4 -42 -7 -50
-8 -9 -1 -71 64 -139 142 -74 86 -136 149 -154 157 -30 13 -33 12 -51 -8 -15
-18 -17 -33 -13 -82 3 -33 8 -70 11 -82 2 -11 8 -43 12 -70 5 -26 8 -50 9 -53
1 -3 4 -18 8 -35 21 -98 21 -101 -34 -140 -45 -34 -51 -36 -67 -22 -30 26
-216 150 -252 168 -26 13 -40 14 -56 7 -49 -23 -41 -51 105 -357 l30 -64 -34
-66 c-47 -94 -52 -107 -74 -195 -11 -43 -23 -82 -28 -86 -4 -4 -46 -22 -93
-40 -157 -61 -412 -194 -466 -244 -7 -6 -25 -20 -40 -31 -58 -43 -202 -194
-238 -249 -58 -91 -97 -183 -114 -269 -11 -56 -6 -270 7 -327 33 -138 50 -177
91 -204 22 -14 42 -26 44 -26 3 0 24 -13 48 -29 48 -31 74 -47 263 -152 126
-71 373 -196 465 -237 106 -46 240 -101 310 -126 41 -15 84 -31 95 -36 23 -9
57 -23 65 -25 3 0 70 -22 150 -47 152 -49 180 -57 192 -59 4 0 37 -9 72 -19
36 -10 66 -17 68 -15 2 2 41 6 88 10 47 3 112 8 145 11 33 3 80 7 105 9 25 3
63 7 85 10 22 2 67 7 100 10 52 5 125 14 247 30 18 3 51 7 73 10 22 3 51 7 65
10 23 4 70 11 137 19 15 2 80 13 143 25 63 11 126 22 140 25 14 2 46 9 71 15
25 6 61 13 80 15 30 5 184 39 292 65 20 5 37 7 37 4 0 -3 6 -1 13 4 6 6 30 14
52 17 22 4 54 11 70 16 17 5 98 28 180 51 208 57 645 204 740 249 11 5 45 19
75 31 30 12 82 34 115 49 33 15 89 40 125 56 120 53 394 195 481 250 20 13 39
21 42 18 14 -14 35 129 30 212 -7 130 -78 308 -163 406 -50 58 -147 151 -197
189 -32 24 -59 47 -61 52 -2 4 -7 7 -12 7 -5 0 -32 16 -62 35 -92 62 -270 147
-463 222 -45 17 -51 23 -56 56 -3 20 -3 37 0 37 7 0 6 78 -1 86 -3 3 -3 19 1
37 4 18 4 46 0 64 -3 18 -4 35 -1 37 7 8 8 106 1 106 -4 0 -3 16 1 34 4 19 6
37 3 39 -4 4 -4 46 -2 97 2 27 -17 215 -21 215 -1 0 -4 16 -7 35 -2 19 -9 39
-14 45 -5 5 -9 17 -9 26 0 34 -109 260 -140 289 -3 3 -21 25 -41 50 -54 66
-68 80 -134 136 -214 180 -505 255 -779 200 -11 -3 -35 -8 -51 -11 -30 -6 -36
-1 -138 119 -113 131 -152 167 -177 158z m700 -467 c62 -12 186 -65 246 -104
91 -59 192 -163 247 -256 24 -41 57 -112 62 -133 2 -9 11 -35 19 -57 26 -71
34 -144 36 -323 1 -98 1 -181 1 -187 0 -5 -1 -32 -1 -60 -1 -27 -1 -54 0 -60
1 -5 2 -14 1 -20 -1 -5 -1 -118 -1 -250 1 -272 2 -245 0 -310 -1 -27 -1 -54 0
-60 1 -5 2 -14 1 -20 -1 -5 -1 -118 -1 -250 1 -272 2 -245 0 -310 -1 -27 -1
-54 0 -60 1 -5 2 -14 1 -20 -1 -5 -3 -66 -4 -135 l-2 -124 -75 -24 c-41 -12
-83 -25 -93 -27 -10 -2 -27 -7 -37 -10 -10 -3 -27 -8 -37 -10 -10 -2 -67 -16
-128 -30 -60 -14 -128 -28 -150 -31 -46 -6 -68 -10 -145 -24 -30 -5 -80 -12
-110 -15 -30 -3 -66 -8 -80 -10 -112 -17 -394 -37 -550 -39 l-105 -1 -3 460
c-1 253 -2 469 -3 480 0 11 0 85 0 165 0 80 0 152 0 160 0 8 0 80 0 160 0 80
0 152 0 160 -1 18 0 294 1 365 1 155 9 363 14 384 50 209 147 365 306 494 29
23 143 84 205 109 79 31 281 44 385 23z m-1700 -793 c14 -5 43 -15 65 -22 151
-45 315 -170 402 -306 71 -110 114 -244 119 -375 1 -47 4 -90 5 -95 1 -5 0
-13 -1 -19 -1 -5 -1 -28 -1 -50 2 -52 2 -53 -1 -101 -1 -22 1 -44 4 -50 3 -5
2 -18 -2 -29 -4 -11 -4 -32 1 -47 4 -16 5 -28 1 -28 -8 0 -6 -85 2 -106 3 -8
2 -14 -3 -14 -4 0 -5 -19 -1 -43 3 -24 3 -55 -1 -69 -4 -14 -3 -31 1 -38 4 -7
4 -25 0 -40 -4 -15 -4 -33 0 -40 4 -7 4 -25 0 -40 -4 -15 -4 -33 0 -40 5 -7 6
-19 3 -27 -8 -21 -9 -213 -1 -213 4 0 5 -6 2 -14 -7 -19 -10 -106 -3 -106 3 0
3 -20 -1 -43 -3 -24 -3 -52 1 -63 3 -10 4 -23 1 -28 -7 -13 -6 -91 2 -104 3
-6 3 -13 -1 -15 -20 -11 -428 15 -613 38 -198 26 -245 34 -425 71 -137 28
-129 27 -215 49 -36 9 -72 18 -80 20 -8 2 -53 17 -100 33 l-85 30 -2 39 c-4
82 -4 101 -4 203 0 58 0 114 0 125 0 11 0 65 0 120 0 55 0 109 0 120 0 27 0
216 0 235 0 8 1 31 3 50 2 19 0 50 -3 68 -4 17 -3 34 1 37 5 3 5 18 0 34 -4
16 -6 31 -4 33 2 3 6 60 8 129 3 83 12 147 25 194 22 73 78 192 115 240 29 39
142 155 150 155 4 0 16 9 28 19 20 19 130 76 193 100 70 27 164 39 275 36 63
-1 126 -7 140 -13z m2585 -993 c311 -161 427 -394 296 -590 -31 -46 -130 -149
-142 -149 -4 0 -14 -6 -21 -13 -19 -19 -130 -85 -173 -103 -36 -15 -38 -15
-33 4 3 11 2 26 -3 33 -4 7 -5 17 -2 23 7 11 8 84 1 91 -3 3 -2 20 1 38 4 18
4 46 0 64 -4 18 -4 34 -2 37 8 8 9 106 2 106 -4 0 -4 15 0 33 4 17 4 47 0 65
-3 18 -3 34 1 37 4 3 4 21 0 40 -4 19 -4 37 0 40 4 3 4 20 0 39 -4 19 -6 37
-3 39 2 2 3 24 3 48 0 24 0 53 0 64 0 11 0 35 0 53 0 17 3 32 7 32 5 0 35 -14
68 -31z m-3716 -419 c0 -231 -4 -420 -8 -420 -16 0 -185 117 -223 153 -47 46
-107 132 -114 166 -3 14 -9 37 -13 51 -18 63 13 185 65 251 33 41 138 139 157
145 9 3 17 10 17 15 0 5 6 9 13 9 7 0 28 11 47 25 19 13 40 24 47 25 9 0 12
-97 12 -420z"/>
<path d="M4015 4540 c-66 -20 -107 -84 -104 -161 4 -87 82 -154 170 -145 62 6
100 33 129 93 57 119 -65 253 -195 213z"/>
<path d="M2335 3739 c-37 -10 -93 -66 -101 -100 -8 -35 -5 -89 8 -113 50 -98
170 -124 248 -54 38 34 55 74 52 125 -4 105 -103 173 -207 142z"/>
<path d="M5680 2189 c-15 -9 -211 -102 -220 -104 -10 -3 -57 -24 -125 -56 -38
-18 -76 -32 -82 -32 -7 0 -13 -4 -13 -9 0 -4 -8 -8 -18 -8 -10 0 -22 -4 -28
-9 -9 -8 -413 -169 -444 -177 -3 0 -12 -4 -20 -7 -18 -8 -260 -88 -275 -92 -5
-1 -17 -5 -25 -8 -65 -26 -541 -153 -610 -162 -14 -2 -25 -4 -25 -5 0 -3 -208
-47 -260 -54 -39 -6 -57 -9 -115 -21 -14 -2 -45 -7 -70 -10 -25 -3 -52 -8 -60
-10 -8 -2 -40 -7 -70 -11 -30 -4 -66 -8 -80 -10 -14 -2 -43 -6 -65 -9 -22 -3
-56 -7 -75 -10 -19 -3 -62 -7 -95 -11 -33 -3 -71 -7 -85 -10 -14 -2 -61 -7
-105 -10 -44 -4 -87 -8 -95 -10 -8 -1 -27 -3 -42 -3 -33 -1 -38 -17 -5 -18 12
-1 36 -3 52 -6 207 -35 309 -49 540 -72 51 -5 90 -9 270 -21 140 -10 881 -11
1050 -1 363 21 340 16 448 94 150 108 230 176 367 313 80 81 113 118 192 217
68 87 78 101 78 111 0 6 4 12 9 14 4 2 34 47 65 102 56 96 67 133 36 115z"/>
<path d="M560 1743 c0 -13 242 -256 305 -307 l37 -29 194 -1 c183 -1 224 4
172 19 -31 9 -192 72 -248 97 -109 48 -144 64 -290 136 -85 42 -158 81 -162
87 -5 6 -8 6 -8 -2z"/>
<path d="M1648 1285 c-3 -3 -231 -13 -460 -19 -37 -1 -70 -4 -72 -7 -8 -7 127
-87 278 -164 215 -110 525 -223 741 -271 54 -12 137 -29 185 -38 19 -3 46 -9
60 -12 14 -3 39 -7 55 -9 57 -7 130 -16 160 -20 133 -19 543 -25 713 -12 127
11 340 43 452 68 25 6 52 12 60 14 8 2 35 8 60 14 25 7 53 13 63 16 9 2 21 6
25 9 5 3 19 7 33 10 13 2 44 12 69 21 25 9 52 18 60 20 15 3 106 37 145 54 11
5 35 14 52 21 45 17 33 28 -24 21 -26 -3 -217 -5 -423 -4 -344 0 -481 4 -645
18 -33 2 -89 7 -125 10 -95 8 -139 12 -290 31 -19 2 -59 6 -88 10 -29 3 -63 7
-75 10 -11 2 -39 6 -62 9 -22 3 -78 13 -125 21 -47 8 -98 16 -115 19 -16 3
-41 8 -55 11 -14 4 -36 8 -49 10 -34 4 -86 17 -316 74 -110 28 -213 53 -230
56 -16 3 -35 7 -42 9 -6 2 -13 2 -15 0z"/>
</g>
</svg>
